<svg width="960" height="960" viewBox="0 0 960 960" fill="none" xmlns="http://www.w3.org/2000/svg">
<g clip-path="url(#clip0_583_1344)">
<path d="M847.358 644.501C847.358 644.501 882.314 611.879 907.975 608.76C916.607 649.046 818.775 722.688 818.775 722.688C818.775 722.688 833.275 688.904 846.913 644.358L847.358 644.501Z" fill="#171717"/>
<path d="M861.931 466.674C880.907 510.384 864.642 586.462 846.909 644.358C833.273 688.904 818.771 722.688 818.771 722.688C815.638 700.097 810.416 677.846 803.171 656.221C803.171 654.815 808.196 614.284 819.06 569.738C828.626 530.501 842.731 488.147 861.931 466.674Z" fill="#171717"/>
<path d="M748.268 566.312C752.434 569.776 756.363 573.515 760.029 577.503C780.472 599.638 794.18 629.395 803.168 656.219C810.413 677.845 815.635 700.096 818.768 722.687C818.768 722.687 804.358 719.926 788.245 708.187C775.13 698.585 764.61 685.872 757.631 671.193C746.321 647.883 740.278 614.354 748.268 566.312Z" fill="#171717"/>
<path d="M694.652 474.684L733.165 421.001L672.017 437.552L748.992 327.481L687.854 348.333C688.954 347.313 759.154 281.733 770.577 226.761L712.313 247.612C713.536 246.612 791.513 182.673 800.784 156.268L859.057 272.801L804.381 237.549L855.46 360.572L794.312 331.079L838.912 430.352L787.844 405.169L825.969 495.036L773.79 480.819L756.903 476.219L737.761 485.101L723.401 491.766L661.948 520.271L694.652 474.684Z" fill="#171717"/>
<path d="M649.474 426.722L631.252 416.316L623.089 443.558C617.941 441.907 612.835 440.392 607.771 439.012L620.225 413.32H594.8L624.538 392.22L600.079 389.815L628.379 363.44L611.594 358.64L654.275 325.07L659.065 376.87L641.8 366.318L656.669 403.73L637.969 395.098L649.474 426.722Z" fill="url(#paint0_linear_583_1344)"/>
<path d="M636.154 645.153C623.754 639.497 607.914 640.312 591.404 644.521L592.331 642.768V642.758L607.374 614.223C607.374 614.223 637.374 622.274 643.874 627.91L636.434 644.521L636.154 645.153Z" fill="url(#paint1_linear_583_1344)"/>
<path d="M510.017 426.1L510.037 426.813C476.506 427.611 443.263 433.216 411.324 443.456C412.065 430.384 417.78 418.092 427.296 409.1C436.812 400.108 449.408 395.099 462.5 395.1C484 395.1 502.414 407.319 510.017 426.1Z" fill="#171717"/>
<path d="M499.948 586.287L483.336 590.843C483.122 590.099 483.02 589.681 483.02 589.681C480.556 589.85 478.107 590.194 475.692 590.71C467.376 592.402 453.465 596.825 441.766 608.301L441.755 608.29C427.263 571.581 451.865 558.007 461.822 551.861C471.779 545.715 470.515 537.451 471.147 530.461C471.779 523.471 462.247 500.152 513.777 494.221C565.307 488.29 563.908 534.221 566.456 548.051C569.004 561.881 575.356 562.351 582.986 577.29C590.616 592.229 580.408 605.49 580.408 605.49C568.596 587.482 551.668 585.69 542.221 586.34C539.833 586.475 537.464 586.843 535.148 587.44C535.148 587.44 535.036 588.102 534.781 589.234H534.771L518.3 582.374L518.106 582.394C517.77 578.583 517.362 570.012 520.043 566.486C523.543 561.869 540.864 535.494 524.18 519.443L524.16 519.423C521.465 522.449 518.307 525.029 514.804 527.066C508.382 530.876 501.641 534.119 494.656 536.758L494.779 537.084L499.948 586.287Z" fill="#171717"/>
<path d="M448.584 667.266C439.71 663.202 430.607 659.656 421.322 656.647L421.454 656.219C423.279 633.207 431.707 618.144 441.766 608.3C453.466 596.824 467.376 592.4 475.692 590.709L476.018 592.33C476.018 592.33 485.558 633.441 511.627 630.476C537.696 627.511 542.353 588.518 542.353 588.518L542.221 586.337C551.668 585.685 568.596 587.479 580.408 605.487C585.931 613.905 590.334 625.859 592.331 642.756V642.766L591.404 644.519C546.552 655.944 496.686 692.357 496.686 692.357C496.146 692.887 474.867 679.139 448.584 667.266Z" fill="url(#paint2_linear_583_1344)"/>
<path d="M410.917 630.375L421.454 656.22L421.322 656.648C407.34 652.194 393.408 649.575 381.535 650.829V650.819L377.948 637.458C377.948 637.458 399.848 631.425 410.285 630.63L410.917 630.375Z" fill="url(#paint3_linear_583_1344)"/>
<path d="M429.934 730.82C429.934 730.82 385.948 729.577 362.824 712.476C350.824 703.609 344.449 690.483 352.694 671.058C358.218 658.058 368.674 652.174 381.535 650.829C393.408 649.575 407.335 652.194 421.322 656.648C430.607 659.657 439.71 663.203 448.584 667.267C474.867 679.14 496.146 692.888 496.684 692.358C496.684 692.358 546.55 655.945 591.402 644.52C607.912 640.311 623.749 639.496 636.152 645.152C644.845 649.096 651.857 656.22 656.252 667.563C662.479 683.655 656.782 695.599 644.226 704.435C628.573 715.462 602.238 721.668 575.017 725.103C561.657 726.784 548.082 727.803 535.445 728.394C503.73 729.872 477.945 728.67 476.386 728.588C481.339 725.745 484.601 723.503 484.601 723.503C484.601 723.503 484.927 706.025 465.849 709.836C465.849 709.836 433.043 720.69 430.994 731.336L429.934 730.82Z" fill="#171717"/>
<path d="M313.784 446.351L298.415 456L317.115 411.943L294.1 426.723L310.885 382.146L294.1 389.82L309.438 344.744L340.138 385.03L320.479 381.188L343.5 412.363L324.31 408.052L346.374 441.622L324.31 434.662L331.322 479.147C326.267 482.092 321.497 485.027 316.993 487.901L313.784 446.351Z" fill="#171717"/>
<path d="M313.763 574.945C315.893 692.511 174.306 725.307 169.914 726.295C169.89 726.297 169.866 726.3 169.842 726.305L168.925 725.653C168.925 725.653 195.514 671.653 238.063 626.767C238.064 626.759 238.067 626.752 238.073 626.747C259.566 604.081 285.126 583.747 313.386 573.885L313.763 574.945Z" fill="url(#paint4_linear_583_1344)"/>
<path d="M267.964 525.608C257.355 571.101 238.48 625.574 238.073 626.746C238.067 626.751 238.064 626.758 238.063 626.766C195.514 671.648 168.925 725.652 168.925 725.652L169.842 726.304C169.866 726.299 169.89 726.296 169.914 726.294L169.985 726.906C168.201 727.099 167.325 727.201 167.325 727.201C167.401 727.189 167.476 727.172 167.549 727.15L167.366 726.314C156.848 696.831 161.781 658.909 173.99 621.214C196.564 551.546 243.973 482.674 264.49 469.384C269.31 466.266 272.643 466.205 273.835 469.914C276.942 479.604 273.63 501.332 267.964 525.608Z" fill="url(#paint5_linear_583_1344)"/>
<path d="M167.366 726.314L167.549 727.15C167.476 727.173 167.401 727.19 167.325 727.202C167.019 727.273 166.703 727.334 166.398 727.395L166.173 726.314C129.994 710.987 109.887 673.738 100.073 632.697C81.7591 556.212 99.1731 466.549 114.85 481.062C138.861 503.268 173.725 620.306 173.99 621.213C161.781 658.91 156.848 696.831 167.366 726.314Z" fill="url(#paint6_linear_583_1344)"/>
<path d="M100.073 632.7C109.887 673.741 129.994 710.99 166.173 726.317L166.398 727.398C74.1457 746.415 25.2177 655.498 43.3977 639.447C61.7417 623.263 100.062 632.7 100.062 632.7H100.073Z" fill="url(#paint7_linear_583_1344)"/>
<path d="M313.763 574.945C315.893 692.511 174.306 725.307 169.914 726.295C169.889 726.297 169.865 726.3 169.842 726.305C169.832 726.311 169.822 726.314 169.812 726.315" stroke="#171717" stroke-width="3" stroke-linecap="round" stroke-linejoin="round"/>
<path d="M238.073 626.747C259.566 604.081 285.126 583.747 313.386 573.885C313.519 573.834 313.651 573.785 313.786 573.742" stroke="#171717" stroke-width="3" stroke-linecap="round" stroke-linejoin="round"/>
<path d="M168.925 725.654C168.925 725.654 195.514 671.654 238.063 626.768" stroke="#171717" stroke-width="3" stroke-linecap="round" stroke-linejoin="round"/>
<path d="M238.063 626.766C238.064 626.759 238.067 626.751 238.073 626.746C238.48 625.574 257.355 571.101 267.964 525.608C273.63 501.332 276.942 479.608 273.834 469.908C272.642 466.199 269.309 466.26 264.489 469.378C243.973 482.668 196.564 551.54 173.989 621.208C161.78 658.908 156.847 696.827 167.365 726.308" stroke="#171717" stroke-width="3" stroke-linecap="round" stroke-linejoin="round"/>
<path d="M174 621.223L173.99 621.213C173.725 620.306 138.861 503.268 114.85 481.062C99.1756 466.549 81.7586 556.212 100.073 632.697C109.887 673.738 129.994 710.987 166.173 726.314" stroke="#171717" stroke-width="3" stroke-linecap="round" stroke-linejoin="round"/>
<path d="M100.063 632.7C100.063 632.7 61.7431 623.263 43.3991 639.447C25.2181 655.5 74.1461 746.413 166.4 727.4C166.705 727.339 167.021 727.277 167.327 727.206C167.403 727.194 167.478 727.177 167.551 727.155C168.01 727.063 168.468 726.961 168.927 726.86" stroke="#171717" stroke-width="3" stroke-linecap="round" stroke-linejoin="round"/>
<path d="M644.439 704.74C663.314 704.852 682.039 705.117 700.767 705.545C719.396 705.962 738.046 706.554 756.9 707.328C767.142 707.746 777.456 708.219 787.841 708.745" stroke="#171717" stroke-width="3" stroke-linecap="round" stroke-linejoin="round"/>
<path d="M167.325 727.199C167.325 727.199 168.201 727.099 169.985 726.904C182.969 725.528 243.892 719.404 362.824 712.473L363.955 712.412" stroke="#171717" stroke-width="3" stroke-linecap="round" stroke-linejoin="round"/>
<path d="M818.771 722.687C815.639 700.096 810.416 677.845 803.172 656.219C794.184 629.395 780.471 599.638 760.032 577.503C756.366 573.515 752.437 569.776 748.271 566.312" stroke="#171717" stroke-width="3" stroke-linecap="round" stroke-linejoin="round"/>
<path d="M818.771 722.688C818.771 722.688 833.271 688.904 846.909 644.358C864.642 586.458 880.91 510.384 861.932 466.674" stroke="#171717" stroke-width="3" stroke-linecap="round" stroke-linejoin="round"/>
<path d="M803.168 656.221C803.168 654.815 808.193 614.284 819.057 569.738C828.626 530.501 842.731 488.147 861.931 466.674" stroke="#171717" stroke-width="3" stroke-linecap="round" stroke-linejoin="round"/>
<path d="M818.771 722.688C818.771 722.688 916.607 649.046 907.971 608.76" stroke="#171717" stroke-width="3" stroke-linecap="round" stroke-linejoin="round"/>
<path d="M847.358 644.501C847.358 644.501 882.314 611.879 907.975 608.76" stroke="#171717" stroke-width="3" stroke-linecap="round" stroke-linejoin="round"/>
<path d="M818.771 722.686C818.771 722.686 804.361 719.925 788.248 708.186C775.133 698.585 764.612 685.872 757.634 671.192C746.321 647.884 740.278 614.355 748.268 566.314" stroke="#171717" stroke-width="3" stroke-linecap="round" stroke-linejoin="round"/>
<path d="M700.787 704.679C700.787 704.679 739.595 627.979 738.287 501.659C738.226 496.326 738.096 490.908 737.899 485.404" stroke="#171717" stroke-width="3" stroke-linecap="round" stroke-linejoin="round"/>
<path d="M760.467 577.099C761.741 558.418 763.453 539.778 765.756 522.769C767.886 506.963 770.526 492.562 773.787 480.822" stroke="#171717" stroke-width="3" stroke-linecap="round" stroke-linejoin="round"/>
<path d="M756.9 707.339V707.329C756.89 706.891 756.717 692.837 756.961 671.529" stroke="#171717" stroke-width="3" stroke-linecap="round" stroke-linejoin="round"/>
<path d="M712.313 247.612C713.536 246.612 791.513 182.673 800.784 156.268L859.057 272.801L804.381 237.549L855.46 360.572L794.312 331.079L838.912 430.352L787.844 405.169L825.969 495.036L773.79 480.819L756.903 476.219L737.761 485.101L723.401 491.766L661.948 520.271L694.648 474.686L733.165 421.001L672.017 437.552L748.992 327.481L687.854 348.333L687.844 348.343" stroke="#171717" stroke-width="3" stroke-linecap="round" stroke-linejoin="round"/>
<path d="M687.854 348.332C688.954 347.312 759.154 281.732 770.577 226.76L712.312 247.611L712.302 247.621" stroke="#171717" stroke-width="3" stroke-linecap="round" stroke-linejoin="round"/>
<path d="M766.205 522.826C782.388 535.739 802.305 553.543 818.771 569.665" stroke="#171717" stroke-width="3" stroke-linecap="round" stroke-linejoin="round"/>
<path d="M723.493 491.967C728.283 495.076 733.087 498.309 737.903 501.667" stroke="#171717" stroke-width="3" stroke-linecap="round" stroke-linejoin="round"/>
<path d="M267.566 526.078C267.681 525.906 267.815 525.749 267.966 525.61C272.193 521.402 276.644 517.427 281.3 513.701C292.68 504.41 304.598 495.797 316.99 487.907C321.49 485.033 326.264 482.098 331.319 479.153C356.592 464.349 383.421 452.38 411.319 443.463C443.258 433.223 476.501 427.618 510.032 426.82C543.029 426.134 575.951 430.244 607.766 439.02C612.833 440.406 617.939 441.921 623.084 443.566C647.888 451.605 671.854 462.028 694.647 474.69C694.688 474.71 694.718 474.731 694.759 474.751" stroke="#171717" stroke-width="3" stroke-linecap="round" stroke-linejoin="round"/>
<path d="M411.3 443.834C411.31 443.712 411.31 443.579 411.32 443.457C412.06 430.384 417.775 418.091 427.292 409.099C436.809 400.107 449.407 395.098 462.5 395.1C484 395.1 502.419 407.32 510.022 426.1" stroke="#171717" stroke-width="3" stroke-linecap="round" stroke-linejoin="round"/>
<path d="M331.323 479.147L324.311 434.662L346.375 441.622L324.311 408.052L343.501 412.363L320.479 381.188L340.138 385.03L309.441 344.744L294.104 389.82L310.889 382.146L294.104 426.723L317.116 411.945L298.415 456.002L313.784 446.351L316.993 487.901" stroke="#171717" stroke-width="3" stroke-linecap="round" stroke-linejoin="round"/>
<path d="M607.771 439.012L620.225 413.32H594.798L624.536 392.224L600.077 389.819L628.378 363.444L611.593 358.644L654.274 325.074L659.064 376.876L641.8 366.318L656.669 403.73L637.968 395.098L649.474 426.722L631.252 416.316L623.089 443.558" stroke="#171717" stroke-width="3" stroke-linecap="round" stroke-linejoin="round"/>
<path d="M281.304 513.694L277.075 451.568L296.499 460.924L272.754 426.722L288.948 435.028L267.566 395.098L282.038 400.133L241.823 340.789L226.363 420.994L250.098 399.409L240.743 449.407L256.57 433.947L248.661 466.672L261.431 454.809L264.05 468.322" stroke="#171717" stroke-width="3" stroke-linecap="round" stroke-linejoin="round"/>
<path d="M306.089 801.313L320.235 764.38L300.331 782.846L285.951 759.111L288.346 794.118L265.803 780.207L275.077 796.513H248.06L275.077 805.145" stroke="#171717" stroke-width="3" stroke-linecap="round" stroke-linejoin="round"/>
<path d="M743.437 789.797L756.849 759.111L734.367 785.007L731.962 754.311L723.809 782.123L708.94 762.943V784.049L685.928 775.896L700.787 794.597" stroke="#171717" stroke-width="3" stroke-linecap="round" stroke-linejoin="round"/>
<path d="M486.566 599.974C490.684 609.774 498.5 622.843 510.566 621.366C526.882 619.366 533.272 595.959 534.78 589.233C535.035 588.101 535.147 587.439 535.147 587.439C537.463 586.842 539.832 586.474 542.22 586.339C551.667 585.687 568.595 587.481 580.407 605.489C585.93 613.907 590.333 625.861 592.33 642.758" stroke="#171717" stroke-width="3" stroke-linecap="round" stroke-linejoin="round"/>
<path d="M381.535 650.82L377.948 637.459L375.899 629.846L386.386 627.777L403.202 624.455L408.102 623.487L410.915 630.376L421.452 656.221C423.277 633.209 431.705 618.146 441.764 608.302C453.464 596.826 467.374 592.402 475.69 590.711C478.106 590.194 480.554 589.851 483.018 589.682C483.018 589.682 483.118 590.1 483.334 590.844C484.229 593.947 485.304 596.996 486.554 599.975" stroke="#171717" stroke-width="3" stroke-linecap="round" stroke-linejoin="round"/>
<path d="M476.314 728.588H476.385C477.945 728.67 503.729 729.872 535.444 728.394C548.081 727.803 561.656 726.784 575.016 725.103C602.237 721.668 628.572 715.462 644.225 704.435C656.781 695.599 662.478 683.655 656.251 667.563C651.859 656.22 644.851 649.096 636.151 645.152C623.751 639.496 607.911 640.311 591.401 644.52C546.549 655.945 496.683 692.358 496.683 692.358C496.143 692.888 474.864 679.14 448.583 667.267C439.709 663.203 430.606 659.657 421.321 656.648C407.339 652.194 393.407 649.575 381.534 650.829C368.673 652.174 358.217 658.054 352.693 671.058C344.448 690.483 350.828 703.609 362.823 712.476C385.947 729.576 429.933 730.82 429.933 730.82" stroke="#171717" stroke-width="3" stroke-linecap="round" stroke-linejoin="round"/>
<path d="M476.385 728.589C481.338 725.746 484.6 723.504 484.6 723.504C484.6 723.504 484.926 706.026 465.848 709.837C465.848 709.837 433.042 720.691 430.993 731.337C430.616 733.314 431.293 735.28 433.429 737.165C443.07 745.689 464.553 735.401 476.385 728.589Z" stroke="#171717" stroke-width="3" stroke-linecap="round" stroke-linejoin="round"/>
<path d="M535.148 728.222C535.148 728.222 535.248 728.283 535.448 728.395C538.801 730.362 569.792 748.136 577.599 739.27C585.854 729.894 575.041 725.297 575.041 725.297" stroke="#171717" stroke-width="3" stroke-linecap="round" stroke-linejoin="round"/>
<path d="M391.859 610.5C391.859 610.476 391.855 610.452 391.849 610.429C391.777 609.45 391.186 599.31 397.189 597.496C403.497 595.59 410.652 598.739 409.389 601.766C409.2 602.228 408.901 602.638 408.52 602.961C408.139 603.284 407.686 603.51 407.198 603.621C405.198 604.181 402.245 603.611 399.157 603.193C394.53 602.561 396.344 613.048 396.344 613.048C396.344 613.048 398.036 620.671 402.102 617.175C406.168 613.679 403.233 606.209 407.157 605.893C407.208 605.893 407.257 605.883 407.31 605.883C411.071 605.69 410.979 609.919 408.645 613.683C406.984 616.373 403.784 623.201 403.203 624.455C403.142 624.587 403.111 624.655 403.111 624.655" stroke="#171717" stroke-width="3" stroke-linecap="round" stroke-linejoin="round"/>
<path d="M384.98 610.786C384.735 609.706 379.466 586.486 383.166 585.553C386.835 584.625 391.566 608.931 391.849 610.43" stroke="#171717" stroke-width="3" stroke-linecap="round" stroke-linejoin="round"/>
<path d="M386.182 626.767C386.182 626.767 366.615 592.7 371.8 589.681C376.865 586.736 384.6 609.687 384.977 610.787C384.982 610.8 384.986 610.814 384.987 610.828" stroke="#171717" stroke-width="3" stroke-linecap="round" stroke-linejoin="round"/>
<path d="M637.071 597.181C637.072 597.173 637.075 597.166 637.081 597.16V597.15C637.255 596.508 639.904 586.368 634.228 583.423C628.378 580.386 620.765 582.159 621.458 585.359C621.54 585.768 621.705 586.155 621.944 586.497C622.182 586.839 622.489 587.128 622.844 587.346C624.658 588.508 627.899 588.488 631.252 588.651C635.919 588.885 632.189 598.851 632.189 598.851C632.189 598.851 629.132 606.051 625.779 601.858C622.426 597.665 626.686 590.871 622.895 589.832C622.725 589.786 622.551 589.752 622.375 589.732C619.033 589.202 618.441 593.232 619.991 597.212C621.244 600.474 623.405 609.024 623.405 609.024" stroke="#171717" stroke-width="3" stroke-linecap="round" stroke-linejoin="round"/>
<path d="M643.767 598.761L643.777 598.75C644.032 598.159 653.713 575.881 650.218 574.261C646.743 572.661 637.428 596.261 637.081 597.15" stroke="#171717" stroke-width="3" stroke-linecap="round" stroke-linejoin="round"/>
<path d="M639.66 614.221C639.66 614.221 665.168 584.341 660.623 580.422C656.139 576.56 644.123 598.134 643.777 598.755" stroke="#171717" stroke-width="3" stroke-linecap="round" stroke-linejoin="round"/>
<path d="M591.404 644.52L592.331 642.767V642.757L607.374 614.222L611.43 606.527L623.109 610.002L639.466 614.864L648.516 617.554L643.879 627.909L636.439 644.52" stroke="#171717" stroke-width="3" stroke-linecap="round" stroke-linejoin="round"/>
<path d="M476.018 592.332C476.018 592.332 485.558 633.443 511.627 630.478C537.696 627.513 542.353 588.52 542.353 588.52" stroke="#171717" stroke-width="3" stroke-linecap="round" stroke-linejoin="round"/>
<path d="M555.011 632.434L562.461 654.682" stroke="#171717" stroke-width="3" stroke-linecap="round" stroke-linejoin="round"/>
<path d="M458.061 639.75L448.584 667.266" stroke="#171717" stroke-width="3" stroke-linecap="round" stroke-linejoin="round"/>
<path d="M483.336 590.844L499.948 586.288L500.182 586.227" stroke="#171717" stroke-width="3" stroke-linecap="round" stroke-linejoin="round"/>
<path d="M518.302 582.375L534.771 589.234" stroke="#171717" stroke-width="3" stroke-linecap="round" stroke-linejoin="round"/>
<path d="M533 595.745C533 595.745 523.389 594.175 521 595.745C518.611 597.315 519.247 600.973 519.247 600.973" stroke="#171717" stroke-width="3" stroke-linecap="round" stroke-linejoin="round"/>
<path d="M486.556 599.975H486.566C486.893 599.914 500.518 597.652 502.566 598.905C503.825 599.709 504.818 600.869 505.419 602.238" stroke="#171717" stroke-width="3" stroke-linecap="round" stroke-linejoin="round"/>
<path d="M518.3 584.28C518.3 584.28 518.208 583.556 518.106 582.394C517.77 578.583 517.362 570.012 520.043 566.486C523.543 561.869 540.864 535.494 524.18 519.443" stroke="#171717" stroke-width="3" stroke-linecap="round" stroke-linejoin="round"/>
<path d="M500.182 588.519L499.948 586.287L494.781 537.084" stroke="#171717" stroke-width="3" stroke-linecap="round" stroke-linejoin="round"/>
<path d="M487.626 539.307C487.626 539.307 490.48 538.378 494.658 536.758C501.643 534.119 508.384 530.876 514.806 527.066C518.309 525.03 521.467 522.45 524.162 519.423C524.568 518.922 524.946 518.398 525.293 517.854" stroke="#171717" stroke-width="3" stroke-linecap="round" stroke-linejoin="round"/>
<path d="M522.43 527.066H514.806" stroke="#171717" stroke-width="3" stroke-linecap="round" stroke-linejoin="round"/>
<path d="M517.028 533.899C517.028 533.899 522.144 540.575 524.59 532.625" stroke="#171717" stroke-width="3" stroke-linecap="round" stroke-linejoin="round"/>
<path d="M500.182 537.084C500.182 537.084 504.799 543.321 507.489 536.523" stroke="#171717" stroke-width="3" stroke-linecap="round" stroke-linejoin="round"/>
<path d="M506.46 557.578C506.46 557.578 508.315 561.552 513.777 559.331" stroke="#171717" stroke-width="3" stroke-linecap="round" stroke-linejoin="round"/>
<path d="M580.408 605.488C580.408 605.488 590.608 592.229 582.986 577.288C575.364 562.347 568.993 561.868 566.456 548.049C563.919 534.23 565.314 488.287 513.777 494.219C462.24 500.151 471.789 523.467 471.147 530.459C470.505 537.451 471.789 545.715 461.822 551.859C451.855 558.003 427.263 571.579 441.755 608.288" stroke="#171717" stroke-width="3" stroke-linecap="round" stroke-linejoin="round"/>
<path d="M607.374 614.223C607.374 614.223 637.374 622.274 643.874 627.91" stroke="#171717" stroke-width="3" stroke-linecap="round" stroke-linejoin="round"/>
<path d="M377.948 637.459C377.948 637.459 399.848 631.426 410.285 630.631" stroke="#171717" stroke-width="3" stroke-linecap="round" stroke-linejoin="round"/>
<path d="M514.307 548.019C515.234 547.79 516.068 547.282 516.697 546.563C517.326 545.844 517.719 544.949 517.823 544" stroke="#171717" stroke-width="3" stroke-linecap="round" stroke-linejoin="round"/>
<path d="M568.008 498.184C567.206 494.985 567.397 491.617 568.554 488.528C569.712 485.439 571.782 482.775 574.489 480.89C578.864 477.968 584.504 477.339 588.738 474.215C590.587 472.826 592.081 471.022 593.102 468.947C594.123 466.873 594.64 464.587 594.612 462.275" stroke="#171717" stroke-width="3" stroke-linecap="round" stroke-linejoin="round"/>
<path d="M526.626 476.066C523.254 474.579 521.604 470.523 521.88 466.848C522.156 463.173 523.969 459.806 525.89 456.661C527.811 453.516 529.91 450.395 530.872 446.838C531.834 443.281 531.441 439.101 528.858 436.473" stroke="#171717" stroke-width="3" stroke-linecap="round" stroke-linejoin="round"/>
<path d="M475.536 490.748C472.811 488.931 470.332 486.77 468.159 484.319C465.976 481.833 464.838 478.599 464.982 475.292C465.311 471.724 467.597 468.648 468.537 465.192C469.325 461.89 468.905 458.415 467.353 455.396C465.802 452.377 463.221 450.012 460.077 448.73" stroke="#171717" stroke-width="3" stroke-linecap="round" stroke-linejoin="round"/>
<path d="M441.546 527.38C443.146 523.442 441.512 518.768 438.579 515.692C435.646 512.616 431.638 510.829 427.679 509.274C423.72 507.719 419.639 506.282 416.261 503.701C412.883 501.12 410.269 497.11 410.576 492.871" stroke="#171717" stroke-width="3" stroke-linecap="round" stroke-linejoin="round"/>
<path d="M502.675 377.799L513.405 360.646" stroke="#171717" stroke-width="3" stroke-linecap="round" stroke-linejoin="round"/>
<path d="M461.091 365.855L465.383 327.006" stroke="#171717" stroke-width="3" stroke-linecap="round" stroke-linejoin="round"/>
<path d="M426.453 381.687C421.914 378.272 417.888 374.223 414.5 369.664" stroke="#171717" stroke-width="3" stroke-linecap="round" stroke-linejoin="round"/>
<path d="M401.53 418.591C392.591 416.334 384.04 412.752 376.161 407.965" stroke="#171717" stroke-width="3" stroke-linecap="round" stroke-linejoin="round"/>
<path d="M616.329 543.743L621.608 533.674" stroke="#171717" stroke-width="3" stroke-linecap="round" stroke-linejoin="round"/>
<path d="M623.16 542.264L614.496 534.625" stroke="#171717" stroke-width="3" stroke-linecap="round" stroke-linejoin="round"/>
<path d="M692.117 563.806L701.732 560.029" stroke="#171717" stroke-width="3" stroke-linecap="round" stroke-linejoin="round"/>
<path d="M699.4 566.822L698.578 567.734L695.432 555.301" stroke="#171717" stroke-width="3" stroke-linecap="round" stroke-linejoin="round"/>
<path d="M404.536 551.875L400.567 541.375" stroke="#171717" stroke-width="3" stroke-linecap="round" stroke-linejoin="round"/>
<path d="M396.732 550.966L407.283 545.211" stroke="#171717" stroke-width="3" stroke-linecap="round" stroke-linejoin="round"/>
<path d="M348.223 576.409L344.886 566.809" stroke="#171717" stroke-width="3" stroke-linecap="round" stroke-linejoin="round"/>
<path d="M341.147 575.043L352.176 569.764" stroke="#171717" stroke-width="3" stroke-linecap="round" stroke-linejoin="round"/>
<path d="M916.665 411.381L910.453 396.025" stroke="#171717" stroke-width="3" stroke-linecap="round" stroke-linejoin="round"/>
<path d="M905.088 408.515L919.641 398.195" stroke="#171717" stroke-width="3" stroke-linecap="round" stroke-linejoin="round"/>
<path d="M902.075 492.648L914.153 486.59" stroke="#171717" stroke-width="3" stroke-linecap="round" stroke-linejoin="round"/>
<path d="M910.248 496.807L906.29 483.414" stroke="#171717" stroke-width="3" stroke-linecap="round" stroke-linejoin="round"/>
<path d="M175.355 471.108L185.647 459.066" stroke="#171717" stroke-width="3" stroke-linecap="round" stroke-linejoin="round"/>
<path d="M185.714 472.07L174.924 459.121" stroke="#171717" stroke-width="3" stroke-linecap="round" stroke-linejoin="round"/>
<path d="M119.61 426.023L117.61 409.545" stroke="#171717" stroke-width="3" stroke-linecap="round" stroke-linejoin="round"/>
<path d="M108.02 420.999L125.285 414.525" stroke="#171717" stroke-width="3" stroke-linecap="round" stroke-linejoin="round"/>
<path d="M166.3 723.859L245.06 532.775" stroke="#171717" stroke-width="3" stroke-linecap="round" stroke-linejoin="round"/>
<path d="M171.239 723.727C215.099 694.692 253.704 658.414 285.408 616.443" stroke="#171717" stroke-width="3" stroke-linecap="round" stroke-linejoin="round"/>
<path d="M162.376 726.088C135.788 666.991 121.646 603.055 120.828 538.258" stroke="#171717" stroke-width="3" stroke-linecap="round" stroke-linejoin="round"/>
<path d="M158.278 725.67C123.424 716.336 93.3236 694.296 73.9004 663.887" stroke="#171717" stroke-width="3" stroke-linecap="round" stroke-linejoin="round"/>
<path d="M386.834 331.7L382.54 338.129C382.411 338.323 382.225 338.472 382.007 338.557C381.79 338.642 381.552 338.659 381.325 338.604C381.098 338.55 380.893 338.427 380.738 338.253C380.583 338.078 380.486 337.86 380.458 337.629L379.54 329.952C379.513 329.728 379.421 329.517 379.274 329.345C379.127 329.174 378.933 329.05 378.716 328.989L371.274 326.889C371.05 326.825 370.85 326.694 370.702 326.514C370.554 326.334 370.465 326.112 370.447 325.88C370.429 325.647 370.482 325.415 370.599 325.213C370.717 325.012 370.894 324.852 371.105 324.754L378.122 321.509C378.327 321.413 378.499 321.26 378.616 321.068C378.734 320.875 378.792 320.652 378.783 320.427L378.478 312.702C378.469 312.469 378.532 312.238 378.658 312.042C378.783 311.846 378.966 311.692 379.182 311.603C379.397 311.513 379.635 311.492 379.863 311.542C380.09 311.591 380.298 311.71 380.456 311.881L385.71 317.552C385.863 317.718 386.062 317.835 386.281 317.889C386.501 317.942 386.731 317.929 386.943 317.852L394.195 315.174C394.414 315.093 394.653 315.081 394.878 315.14C395.104 315.199 395.306 315.326 395.458 315.503C395.61 315.68 395.703 315.9 395.726 316.132C395.749 316.364 395.701 316.598 395.587 316.802L391.818 323.552C391.708 323.748 391.659 323.973 391.677 324.198C391.694 324.423 391.779 324.638 391.918 324.815L396.705 330.885C396.85 331.068 396.935 331.291 396.949 331.524C396.963 331.757 396.906 331.988 396.784 332.188C396.662 332.387 396.482 332.544 396.268 332.637C396.055 332.731 395.817 332.757 395.588 332.712L388.004 331.212C387.783 331.168 387.553 331.191 387.345 331.278C387.137 331.365 386.959 331.512 386.834 331.7V331.7Z" fill="#171717"/>
<path d="M491.477 195.716L484.285 198.551C484.068 198.637 483.829 198.655 483.601 198.601C483.374 198.547 483.168 198.425 483.012 198.25C482.856 198.075 482.758 197.857 482.731 197.624C482.703 197.392 482.748 197.157 482.858 196.951L486.479 190.121C486.585 189.921 486.629 189.695 486.607 189.471C486.584 189.246 486.495 189.034 486.351 188.86L481.432 182.896C481.284 182.716 481.194 182.494 481.176 182.262C481.157 182.029 481.21 181.796 481.327 181.595C481.444 181.393 481.621 181.232 481.832 181.134C482.044 181.036 482.281 181.004 482.51 181.045L490.125 182.378C490.348 182.417 490.576 182.389 490.783 182.298C490.989 182.207 491.164 182.057 491.285 181.867L495.437 175.346C495.563 175.149 495.745 174.995 495.961 174.905C496.176 174.815 496.414 174.793 496.642 174.842C496.87 174.892 497.078 175.01 497.236 175.181C497.395 175.352 497.498 175.567 497.53 175.799L498.615 183.453C498.647 183.676 498.744 183.885 498.895 184.053C499.045 184.221 499.242 184.341 499.46 184.398L506.945 186.332C507.171 186.39 507.374 186.516 507.526 186.693C507.677 186.871 507.772 187.09 507.795 187.322C507.819 187.554 507.77 187.788 507.657 187.992C507.544 188.196 507.371 188.36 507.161 188.463L500.217 191.863C500.015 191.962 499.846 192.118 499.732 192.313C499.619 192.508 499.566 192.732 499.579 192.958L500.053 200.675C500.068 200.907 500.01 201.139 499.889 201.338C499.767 201.538 499.588 201.695 499.374 201.789C499.161 201.883 498.923 201.909 498.694 201.865C498.466 201.82 498.256 201.706 498.093 201.539L492.716 195.984C492.559 195.821 492.358 195.709 492.138 195.662C491.917 195.614 491.687 195.633 491.477 195.716V195.716Z" fill="#171717"/>
<path d="M578.316 287.334L570.088 291.415C569.84 291.538 569.56 291.582 569.285 291.541C569.011 291.5 568.756 291.376 568.555 291.186C568.353 290.995 568.214 290.748 568.158 290.477C568.101 290.205 568.129 289.923 568.237 289.668L571.837 281.218C571.942 280.971 571.972 280.699 571.922 280.436C571.873 280.172 571.747 279.93 571.559 279.738L565.135 273.173C564.942 272.975 564.813 272.722 564.768 272.449C564.722 272.175 564.761 271.895 564.88 271.644C564.998 271.394 565.191 271.185 565.431 271.048C565.671 270.91 565.948 270.849 566.224 270.873L575.373 271.685C575.64 271.709 575.908 271.653 576.143 271.524C576.379 271.396 576.571 271.2 576.695 270.963L580.954 262.825C581.083 262.579 581.283 262.379 581.529 262.251C581.775 262.123 582.054 262.073 582.329 262.109C582.604 262.144 582.861 262.263 583.067 262.449C583.272 262.635 583.415 262.88 583.477 263.15L585.533 272.102C585.593 272.363 585.729 272.601 585.924 272.785C586.119 272.969 586.364 273.091 586.628 273.136L595.684 274.671C595.957 274.717 596.21 274.846 596.408 275.041C596.605 275.235 596.739 275.485 596.79 275.757C596.841 276.03 596.808 276.311 596.694 276.564C596.58 276.817 596.392 277.028 596.154 277.171L588.275 281.892C588.045 282.03 587.862 282.233 587.747 282.475C587.632 282.717 587.591 282.988 587.63 283.253L588.969 292.34C589.01 292.614 588.965 292.894 588.842 293.143C588.718 293.391 588.521 293.595 588.278 293.728C588.035 293.861 587.756 293.916 587.481 293.886C587.205 293.856 586.945 293.742 586.736 293.56L579.811 287.526C579.609 287.35 579.359 287.238 579.093 287.203C578.827 287.169 578.556 287.215 578.316 287.334V287.334Z" fill="#171717"/>
</g>
<defs>
<linearGradient id="paint0_linear_583_1344" x1="626.932" y1="325.07" x2="626.932" y2="443.558" gradientUnits="userSpaceOnUse">
<stop stop-color="#D89EFF"/>
<stop offset="1" stop-color="#8238E0"/>
</linearGradient>
<linearGradient id="paint1_linear_583_1344" x1="617.639" y1="614.223" x2="617.639" y2="645.153" gradientUnits="userSpaceOnUse">
<stop stop-color="#D89EFF"/>
<stop offset="1" stop-color="#8238E0"/>
</linearGradient>
<linearGradient id="paint2_linear_583_1344" x1="506.827" y1="586.229" x2="506.827" y2="692.372" gradientUnits="userSpaceOnUse">
<stop stop-color="#D89EFF"/>
<stop offset="1" stop-color="#8238E0"/>
</linearGradient>
<linearGradient id="paint3_linear_583_1344" x1="399.701" y1="630.375" x2="399.701" y2="656.648" gradientUnits="userSpaceOnUse">
<stop stop-color="#D89EFF"/>
<stop offset="1" stop-color="#8238E0"/>
</linearGradient>
<linearGradient id="paint4_linear_583_1344" x1="241.356" y1="573.885" x2="241.356" y2="726.305" gradientUnits="userSpaceOnUse">
<stop stop-color="#D89EFF"/>
<stop offset="1" stop-color="#8238E0"/>
</linearGradient>
<linearGradient id="paint5_linear_583_1344" x1="218.324" y1="467.086" x2="218.324" y2="727.201" gradientUnits="userSpaceOnUse">
<stop stop-color="#D89EFF"/>
<stop offset="1" stop-color="#8238E0"/>
</linearGradient>
<linearGradient id="paint6_linear_583_1344" x1="133.107" y1="479.504" x2="133.107" y2="727.395" gradientUnits="userSpaceOnUse">
<stop stop-color="#D89EFF"/>
<stop offset="1" stop-color="#8238E0"/>
</linearGradient>
<linearGradient id="paint7_linear_583_1344" x1="103.02" y1="629.965" x2="103.02" y2="730" gradientUnits="userSpaceOnUse">
<stop stop-color="#D89EFF"/>
<stop offset="1" stop-color="#8238E0"/>
</linearGradient>
<clipPath id="clip0_583_1344">
<rect width="884" height="653" fill="white" transform="translate(38 154)"/>
</clipPath>
</defs>
</svg>
